<?xml version="1.0" standalone="no"?>
<!DOCTYPE svg PUBLIC "-//W3C//DTD SVG 20010904//EN"
 "http://www.w3.org/TR/2001/REC-SVG-20010904/DTD/svg10.dtd">
<svg version="1.0" xmlns="http://www.w3.org/2000/svg"
 width="128.000000pt" height="128.000000pt" viewBox="0 0 128.000000 128.000000"
 preserveAspectRatio="xMidYMid meet">

<g transform="translate(0.000000,128.000000) scale(0.100000,-0.100000)"
fill="#000000" stroke="none">
<path d="M231 1102 c-52 -28 -71 -73 -71 -163 0 -63 3 -78 17 -83 25 -10 31 3
35 86 5 106 20 121 126 126 77 4 100 15 80 39 -17 21 -146 17 -187 -5z"/>
<path d="M862 1107 c-20 -24 3 -35 80 -39 106 -5 121 -20 126 -126 3 -42 9
-80 15 -84 24 -15 37 15 37 86 0 128 -48 176 -176 176 -46 0 -75 -5 -82 -13z"/>
<path d="M430 800 c0 -48 2 -51 23 -48 19 3 22 9 22 48 0 39 -3 45 -22 48 -21
3 -23 0 -23 -48z"/>
<path d="M647 843 c-4 -3 -7 -60 -7 -125 0 -117 0 -119 -25 -130 -28 -13 -33
-43 -9 -52 19 -7 70 18 78 39 3 9 6 75 6 146 0 118 -2 129 -18 129 -10 0 -22
-3 -25 -7z"/>
<path d="M854 825 c-9 -38 3 -75 26 -75 13 0 22 9 26 25 9 38 -3 75 -26 75
-13 0 -22 -9 -26 -25z"/>
<path d="M437 473 c-16 -15 -5 -41 31 -75 76 -75 175 -96 262 -57 54 24 120
86 120 111 0 34 -30 32 -63 -4 -70 -76 -158 -93 -239 -45 -25 14 -53 38 -62
52 -16 24 -36 32 -49 18z"/>
<path d="M171 417 c-6 -6 -11 -43 -11 -82 0 -127 48 -175 176 -175 71 0 101
13 86 37 -4 6 -42 12 -84 15 -107 5 -122 20 -126 128 -4 79 -16 102 -41 77z"/>
<path d="M1083 422 c-6 -4 -12 -42 -15 -84 -5 -106 -20 -121 -126 -126 -42 -3
-80 -9 -84 -15 -15 -24 15 -37 86 -37 128 0 176 48 176 176 0 71 -13 101 -37
86z"/>
</g>
</svg>
